<?xml version="1.0" encoding="UTF-8"?>
<svg xmlns="http://www.w3.org/2000/svg" xmlns:xlink="http://www.w3.org/1999/xlink" width="170.08pt" height="226.77pt" viewBox="0 0 170.08 226.77" version="1.1">
<defs>
<clipPath id="clip1">
  <path d="M 0 0 L 170.078125 0 L 170.078125 226.769531 L 0 226.769531 Z M 0 0 "/>
</clipPath>
</defs>
<g id="surface1">
<g clip-path="url(#clip1)" clip-rule="nonzero">
<path style=" stroke:none;fill-rule:nonzero;fill:rgb(100%,100%,100%);fill-opacity:1;" d="M 0 226.769531 L 170.078125 226.769531 L 170.078125 0 L 0 0 Z M 0 226.769531 "/>
</g>
<path style=" stroke:none;fill-rule:nonzero;fill:rgb(56.898499%,1.599121%,50.59967%);fill-opacity:1;" d="M 128.46875 108.261719 C 125.316406 108.898438 123.367188 110.621094 113.75 113.527344 C 104.4375 115.894531 88.417969 115.234375 75.601563 109.65625 C 65.695313 105.535156 50.722656 99.132813 50.722656 99.132813 L 40.21875 94.445313 L 38.054688 101.328125 C 38.054688 101.328125 54.546875 107.578125 67.773438 116.332031 C 73.765625 120.296875 90.351563 130.71875 90.351563 130.71875 C 90.351563 130.71875 98.234375 136.460938 101.828125 136.4375 C 104.949219 136.382813 107.574219 133.070313 111.734375 129.09375 C 116.824219 124.546875 119.148438 121.996094 124.6875 117.449219 C 128.378906 114.15625 130.253906 112.441406 130.699219 111.644531 C 131.769531 109.722656 130.269531 107.898438 128.46875 108.261719 "/>
<path style=" stroke:none;fill-rule:nonzero;fill:rgb(56.898499%,1.599121%,50.59967%);fill-opacity:1;" d="M 19.445313 155.226563 L 23.742188 155.226563 L 23.742188 150.933594 L 19.445313 150.933594 Z M 19.445313 155.226563 "/>
<path style=" stroke:none;fill-rule:nonzero;fill:rgb(56.898499%,1.599121%,50.59967%);fill-opacity:1;" d="M 29.929688 155.226563 L 34.222656 155.226563 L 34.222656 150.933594 L 29.929688 150.933594 Z M 29.929688 155.226563 "/>
<path style=" stroke:none;fill-rule:nonzero;fill:rgb(56.898499%,1.599121%,50.59967%);fill-opacity:1;" d="M 40.417969 155.226563 L 44.707031 155.226563 L 44.707031 150.933594 L 40.417969 150.933594 Z M 40.417969 155.226563 "/>
<path style=" stroke:none;fill-rule:nonzero;fill:rgb(56.898499%,1.599121%,50.59967%);fill-opacity:1;" d="M 50.902344 155.226563 L 55.191406 155.226563 L 55.191406 150.933594 L 50.902344 150.933594 Z M 50.902344 155.226563 "/>
<path style=" stroke:none;fill-rule:nonzero;fill:rgb(56.898499%,1.599121%,50.59967%);fill-opacity:1;" d="M 61.386719 155.226563 L 65.675781 155.226563 L 65.675781 150.933594 L 61.386719 150.933594 Z M 61.386719 155.226563 "/>
<path style=" stroke:none;fill-rule:nonzero;fill:rgb(56.898499%,1.599121%,50.59967%);fill-opacity:1;" d="M 71.875 155.226563 L 76.167969 155.226563 L 76.167969 150.933594 L 71.875 150.933594 Z M 71.875 155.226563 "/>
<path style=" stroke:none;fill-rule:nonzero;fill:rgb(56.898499%,1.599121%,50.59967%);fill-opacity:1;" d="M 82.359375 155.226563 L 86.648438 155.226563 L 86.648438 150.933594 L 82.359375 150.933594 Z M 82.359375 155.226563 "/>
<path style=" stroke:none;fill-rule:nonzero;fill:rgb(56.898499%,1.599121%,50.59967%);fill-opacity:1;" d="M 92.84375 155.226563 L 97.132813 155.226563 L 97.132813 150.933594 L 92.84375 150.933594 Z M 92.84375 155.226563 "/>
<path style=" stroke:none;fill-rule:nonzero;fill:rgb(56.898499%,1.599121%,50.59967%);fill-opacity:1;" d="M 103.332031 155.226563 L 107.621094 155.226563 L 107.621094 150.933594 L 103.332031 150.933594 Z M 103.332031 155.226563 "/>
<path style=" stroke:none;fill-rule:nonzero;fill:rgb(56.898499%,1.599121%,50.59967%);fill-opacity:1;" d="M 113.816406 155.226563 L 118.105469 155.226563 L 118.105469 150.933594 L 113.816406 150.933594 Z M 113.816406 155.226563 "/>
<path style=" stroke:none;fill-rule:nonzero;fill:rgb(56.898499%,1.599121%,50.59967%);fill-opacity:1;" d="M 124.300781 155.226563 L 128.589844 155.226563 L 128.589844 150.933594 L 124.300781 150.933594 Z M 124.300781 155.226563 "/>
<path style=" stroke:none;fill-rule:nonzero;fill:rgb(56.898499%,1.599121%,50.59967%);fill-opacity:1;" d="M 134.789063 155.226563 L 139.082031 155.226563 L 139.082031 150.933594 L 134.789063 150.933594 Z M 134.789063 155.226563 "/>
<path style=" stroke:none;fill-rule:nonzero;fill:rgb(56.898499%,1.599121%,50.59967%);fill-opacity:1;" d="M 145.296875 155.230469 L 149.589844 155.230469 L 149.589844 150.9375 L 145.296875 150.9375 Z M 145.296875 155.230469 "/>
<path style=" stroke:none;fill-rule:nonzero;fill:rgb(56.898499%,1.599121%,50.59967%);fill-opacity:1;" d="M 145.308594 142.429688 L 23.722656 142.429688 L 23.722656 20.84375 L 145.308594 20.84375 Z M 19.445313 146.703125 L 149.582031 146.703125 L 149.582031 16.570313 L 19.445313 16.570313 Z M 19.445313 146.703125 "/>
<path style=" stroke:none;fill-rule:nonzero;fill:rgb(56.898499%,1.599121%,50.59967%);fill-opacity:1;" d="M 129.84375 64.382813 C 129.859375 47.5625 118.445313 27.164063 85.167969 26.777344 C 55.789063 27.570313 40.511719 43.644531 40.523438 64.417969 C 41.320313 94.0625 67.96875 102.015625 85.203125 102.011719 C 113.445313 102 130.613281 85.601563 129.84375 64.382813 M 85.105469 94.625 C 76.113281 94.628906 61.804688 90.5625 61.804688 64.3125 C 61.800781 47.5625 68.359375 34.371094 85.089844 33.96875 C 103.757813 34.355469 108.386719 46.984375 108.394531 64.296875 C 108.796875 81.390625 102.8125 95.007813 85.105469 94.625 "/>
<path style=" stroke:none;fill-rule:nonzero;fill:rgb(0%,57.598877%,68.598938%);fill-opacity:1;" d="M 35.535156 201.09375 C 38.4375 204.503906 40.164063 205.179688 45.253906 205.511719 C 49.183594 205.457031 50.5625 204.800781 54.496094 202.242188 C 54.496094 202.242188 55.226563 201.890625 55.691406 202.273438 C 56.179688 202.691406 55.832031 203.484375 55.832031 203.484375 C 54.878906 204.9375 51.949219 209.769531 45.585938 210.1875 C 42.707031 210.394531 38.277344 207.851563 36.453125 206.195313 C 34.621094 204.554688 33.839844 203.136719 32.53125 201.28125 C 26.519531 200.710938 25.53125 198.433594 24.441406 197.230469 C 22.859375 195.472656 21.617188 193.28125 20.738281 190.6875 C 19.867188 188.09375 19.429688 185.03125 19.429688 181.492188 C 19.425781 175.910156 20.703125 171.292969 23.261719 167.613281 C 25.816406 163.921875 28.898438 162.078125 32.542969 162.078125 C 35.976563 162.078125 38.953125 163.921875 41.480469 167.617188 C 44.023438 171.304688 45.28125 175.964844 45.292969 181.59375 C 45.289063 186.160156 44.515625 190.359375 42.703125 193.804688 C 40.910156 197.230469 39.109375 199.628906 35.535156 201.09375 M 32.308594 164.171875 C 29.953125 164.183594 28.046875 165.375 26.597656 167.765625 C 24.773438 170.75 23.800781 175.460938 23.800781 181.625 C 23.804688 187.664063 24.609375 192.066406 26.472656 195.320313 C 27.910156 197.832031 30.09375 199.542969 32.441406 199.542969 C 34.875 199.542969 36.890625 197.785156 38.398438 195.269531 C 40.144531 192.300781 40.859375 188.089844 40.859375 182.292969 C 40.851563 177.828125 40.363281 174.066406 39.40625 171.035156 C 38.644531 168.671875 37.671875 166.960938 36.445313 165.839844 C 35.207031 164.730469 33.839844 164.179688 32.308594 164.171875 "/>
<path style=" stroke:none;fill-rule:nonzero;fill:rgb(0%,57.598877%,68.598938%);fill-opacity:1;" d="M 63.132813 174.976563 L 63.140625 190.328125 C 63.136719 193.203125 63.191406 194.980469 63.277344 195.613281 C 63.386719 196.253906 63.507813 196.703125 63.71875 196.964844 C 63.996094 197.316406 63.988281 197.53125 64.441406 197.746094 C 64.984375 198.023438 65.289063 197.898438 65.738281 197.582031 L 66.074219 198.519531 L 60.910156 200.96875 L 60.058594 200.96875 L 60.121094 196.320313 C 58.679688 198.636719 57.769531 199.792969 57 200.40625 C 56.253906 200.996094 55.96875 201.285156 54.492188 201.285156 C 53.550781 201.285156 52.609375 200.566406 51.90625 199.738281 C 51.207031 198.929688 50.722656 197.882813 50.449219 196.601563 C 50.183594 195.300781 50.0625 193.488281 50.058594 191.132813 L 50.058594 179.890625 C 50.054688 178.683594 49.980469 177.859375 49.796875 177.386719 C 49.601563 176.925781 49.355469 176.578125 49.027344 176.328125 C 48.691406 176.058594 48.074219 175.953125 47.1875 175.964844 L 47.1875 174.976563 L 53.128906 174.984375 L 53.132813 191.898438 C 53.132813 194.242188 53.398438 195.800781 53.957031 196.542969 C 54.492188 197.265625 55.199219 197.910156 55.964844 197.910156 C 56.496094 197.910156 57.265625 197.707031 57.945313 197.199219 C 58.589844 196.707031 59.085938 196.253906 60.027344 194.65625 L 60.050781 179.765625 C 60.050781 178.300781 59.890625 177.308594 59.53125 176.796875 C 59.183594 176.289063 58.472656 176 57.347656 175.964844 L 57.339844 174.980469 "/>
<path style=" stroke:none;fill-rule:nonzero;fill:rgb(0%,57.598877%,68.598938%);fill-opacity:1;" d="M 78.648438 197.105469 C 76.785156 199.121094 75.605469 200.28125 75.136719 200.585938 C 74.402344 201.058594 73.628906 201.285156 72.824219 201.285156 C 71.550781 201.285156 70.5 200.6875 69.6875 199.488281 C 68.867188 198.300781 68.496094 197.167969 68.496094 195.226563 C 68.496094 193.988281 68.890625 192.464844 69.300781 191.585938 C 69.835938 190.328125 70.949219 189.210938 72.296875 188.097656 C 73.652344 187.003906 75.449219 185.8125 78.589844 184.242188 L 78.589844 183.078125 C 78.582031 180.582031 78.269531 178.765625 77.917969 177.722656 C 77.570313 176.597656 76.460938 176.128906 75.355469 176.128906 C 74.511719 176.136719 73.769531 176.546875 73.277344 177.171875 C 72.773438 177.796875 72.515625 178.789063 72.519531 179.589844 L 72.550781 181.191406 C 72.550781 182.019531 72.503906 182.234375 72.195313 182.695313 C 71.878906 183.15625 71.464844 183.378906 70.949219 183.382813 C 70.457031 183.378906 70.054688 183.144531 69.738281 182.667969 C 69.433594 182.199219 69.195313 181.535156 69.234375 180.71875 C 69.339844 178.886719 69.753906 178.117188 70.925781 176.816406 C 72.097656 175.492188 73.742188 174.835938 75.863281 174.832031 C 77.492188 174.832031 78.460938 175.371094 79.507813 176.128906 C 80.285156 176.691406 80.863281 177.921875 81.15625 179.386719 C 81.308594 180.191406 81.488281 181.359375 81.492188 183.804688 L 81.496094 192.371094 C 81.496094 194.78125 81.519531 196.253906 81.585938 196.796875 C 81.667969 197.332031 81.773438 197.703125 81.925781 197.886719 C 82.523438 198.46875 83.128906 198.46875 84.113281 197.367188 L 84.566406 198.046875 C 83.078125 200.78125 82.1875 201.277344 80.835938 201.277344 C 80.167969 201.28125 79.640625 200.960938 79.265625 200.347656 C 78.871094 199.703125 78.664063 198.632813 78.648438 197.105469 M 78.644531 195.328125 L 78.640625 185.734375 C 76.640625 186.847656 75.328125 187.632813 74.75 188.085938 C 73.6875 188.890625 72.949219 189.722656 72.484375 190.609375 C 72.035156 191.484375 71.804688 192.4375 71.796875 193.492188 C 71.800781 194.800781 72.089844 195.910156 72.660156 196.769531 C 73.253906 197.640625 73.90625 198.078125 74.640625 198.078125 C 75.65625 198.078125 77.003906 197.15625 78.644531 195.328125 "/>
<path style=" stroke:none;fill-rule:nonzero;fill:rgb(0%,57.598877%,68.598938%);fill-opacity:1;" d="M 129.839844 197.105469 C 127.988281 199.132813 126.808594 200.273438 126.316406 200.589844 C 125.609375 201.058594 124.84375 201.28125 124.011719 201.285156 C 122.746094 201.285156 121.699219 200.6875 120.894531 199.5 C 120.066406 198.308594 119.691406 197.171875 119.691406 195.234375 C 119.683594 193.996094 120.109375 192.492188 120.503906 191.585938 C 121.035156 190.335938 122.15625 189.214844 123.503906 188.105469 C 124.863281 187 126.636719 185.824219 129.792969 184.238281 L 129.789063 183.082031 C 129.78125 180.578125 129.464844 178.773438 129.140625 177.726563 C 128.792969 176.613281 127.667969 176.132813 126.546875 176.125 C 125.726563 176.128906 124.972656 176.554688 124.484375 177.179688 C 123.996094 177.796875 123.738281 178.796875 123.738281 179.597656 L 123.761719 181.199219 C 123.761719 182.039063 123.707031 182.230469 123.386719 182.6875 C 123.070313 183.160156 122.660156 183.382813 122.167969 183.382813 C 121.65625 183.382813 121.257813 183.136719 120.957031 182.667969 C 120.632813 182.183594 120.390625 181.539063 120.441406 180.710938 C 120.539063 178.882813 120.949219 178.140625 122.132813 176.808594 C 123.300781 175.492188 124.9375 174.828125 127.070313 174.832031 C 128.695313 174.832031 129.664063 175.375 130.714844 176.128906 C 131.488281 176.683594 132.066406 177.929688 132.363281 179.382813 C 132.527344 180.199219 132.6875 181.375 132.6875 183.8125 L 132.695313 192.390625 C 132.695313 194.792969 132.726563 196.261719 132.804688 196.804688 C 132.867188 197.339844 132.972656 197.707031 133.125 197.886719 C 133.742188 198.480469 134.328125 198.476563 135.320313 197.371094 L 135.773438 198.050781 C 134.273438 200.800781 133.378906 201.28125 132.039063 201.285156 C 131.355469 201.28125 130.847656 200.964844 130.457031 200.347656 C 130.074219 199.707031 129.867188 198.625 129.839844 197.105469 M 129.839844 195.339844 L 129.839844 185.753906 C 127.839844 186.847656 126.527344 187.625 125.933594 188.085938 C 124.882813 188.890625 124.144531 189.734375 123.683594 190.609375 C 123.226563 191.492188 123.007813 192.449219 123.007813 193.496094 C 123.007813 194.808594 123.289063 195.910156 123.871094 196.765625 C 124.445313 197.636719 125.09375 198.074219 125.847656 198.074219 C 126.875 198.074219 128.191406 197.152344 129.839844 195.339844 "/>
<path style=" stroke:none;fill-rule:nonzero;fill:rgb(0%,57.598877%,68.598938%);fill-opacity:1;" d="M 92.183594 162.15625 L 92.195313 195.613281 C 92.203125 197.183594 92.265625 198.226563 92.4375 198.742188 C 92.601563 199.25 92.871094 199.632813 93.214844 199.890625 C 93.574219 200.171875 94.21875 200.296875 95.191406 200.296875 L 95.1875 201.28125 L 86.050781 201.285156 L 86.050781 200.296875 C 86.898438 200.296875 87.488281 200.175781 87.808594 199.933594 C 88.117188 199.707031 88.359375 199.300781 88.539063 198.765625 C 88.714844 198.21875 88.8125 197.171875 88.8125 195.613281 L 88.792969 172.71875 C 88.800781 169.890625 88.625 166.046875 88.414063 165.796875 C 88.234375 165.269531 87.644531 164.878906 86.011719 165.664063 L 85.679688 164.789063 L 91.253906 162.160156 "/>
<path style=" stroke:none;fill-rule:nonzero;fill:rgb(0%,57.598877%,68.598938%);fill-opacity:1;" d="M 102.753906 175.597656 L 102.761719 195.671875 C 102.761719 197.230469 102.832031 198.257813 102.980469 198.773438 C 103.140625 199.285156 103.378906 199.65625 103.679688 199.929688 C 103.980469 200.175781 104.535156 200.300781 105.363281 200.300781 L 105.367188 201.28125 L 96.910156 201.285156 L 96.910156 200.300781 C 97.761719 200.304688 98.332031 200.191406 98.617188 199.9375 C 98.914063 199.707031 99.136719 199.328125 99.308594 198.789063 C 99.488281 198.25 99.585938 197.203125 99.574219 195.671875 L 99.574219 186.0625 C 99.574219 183.34375 99.523438 181.597656 99.402344 180.800781 C 99.292969 180.214844 99.160156 179.804688 98.96875 179.582031 C 98.78125 179.359375 98.515625 179.246094 98.195313 179.242188 C 97.855469 179.242188 97.410156 179.378906 96.902344 179.660156 L 96.640625 178.664063 L 101.90625 175.601563 Z M 101.183594 162.53125 C 101.703125 162.527344 102.152344 162.796875 102.542969 163.335938 C 102.914063 163.875 103.097656 164.523438 103.101563 165.285156 C 103.097656 166.054688 102.910156 166.710938 102.542969 167.269531 C 102.152344 167.808594 101.714844 168.070313 101.1875 168.074219 C 100.660156 168.070313 100.207031 167.808594 99.8125 167.265625 C 99.460938 166.714844 99.25 166.054688 99.246094 165.28125 C 99.25 164.523438 99.441406 163.878906 99.804688 163.335938 C 100.175781 162.796875 100.636719 162.53125 101.183594 162.53125 "/>
<path style=" stroke:none;fill-rule:nonzero;fill:rgb(0%,57.598877%,68.598938%);fill-opacity:1;" d="M 113.191406 167.523438 L 113.191406 175.203125 L 117.234375 175.203125 L 117.242188 176.675781 L 113.195313 176.753906 L 113.195313 193.484375 C 113.199219 195.105469 113.285156 195.925781 113.460938 196.964844 C 113.558594 197.613281 114.210938 198.550781 115.136719 198.507813 C 116.023438 198.507813 117.070313 197.253906 117.285156 196.519531 L 118.054688 196.519531 C 117.597656 198.308594 115.910156 201.546875 113.390625 201.269531 C 111.140625 201.195313 110.449219 199.28125 110.285156 198.082031 C 110.160156 197.167969 110.050781 195.910156 110.050781 194.074219 L 110.039063 176.675781 L 107.683594 176.679688 L 107.675781 176.199219 C 108.378906 175.796875 108.71875 175.113281 109.441406 174.15625 C 110.160156 173.207031 110.808594 172.070313 111.375 170.746094 C 111.664063 170.042969 112.09375 169.371094 112.628906 167.523438 "/>
<path style=" stroke:none;fill-rule:nonzero;fill:rgb(0%,57.598877%,68.598938%);fill-opacity:1;" d="M 148.308594 174.742188 L 148.308594 182.984375 L 147.917969 182.984375 C 147.460938 180.289063 146.671875 178.277344 145.960938 177.304688 C 145.242188 176.335938 144.273438 175.929688 143.164063 175.929688 C 142.335938 175.929688 141.605469 176.585938 141.085938 177.265625 C 140.570313 177.941406 140.316406 178.679688 140.316406 179.507813 C 140.316406 180.527344 140.472656 181.410156 140.863281 182.140625 C 141.234375 182.894531 142.078125 183.785156 143.277344 184.757813 L 146.101563 187.085938 C 148.589844 188.902344 149.558594 190.6875 149.5625 193.636719 C 149.558594 195.9375 148.984375 197.789063 147.828125 199.1875 C 146.679688 200.59375 145.398438 201.285156 143.964844 201.285156 C 142.9375 201.292969 141.761719 201.042969 140.429688 200.5 C 140.03125 200.339844 139.699219 200.246094 139.4375 200.246094 C 139.160156 200.246094 138.949219 200.460938 138.796875 200.898438 L 138.152344 200.898438 L 138.152344 191.894531 L 138.621094 191.890625 C 138.953125 194.472656 139.480469 196.890625 140.445313 198.199219 C 141.402344 199.503906 142.765625 199.941406 143.949219 199.941406 C 144.792969 199.941406 145.710938 199.523438 146.253906 198.789063 C 146.789063 198.046875 146.847656 196.914063 146.847656 195.875 C 146.847656 194.601563 146.558594 193.550781 145.96875 192.683594 C 145.367188 191.820313 144.1875 190.742188 142.394531 189.417969 C 140.644531 188.105469 139.476563 186.910156 138.910156 185.84375 C 138.371094 184.804688 138.09375 183.472656 138.09375 181.886719 C 138.09375 179.820313 138.472656 178.367188 139.390625 176.972656 C 140.335938 175.582031 140.941406 174.964844 142.835938 174.707031 C 144.140625 174.550781 144.613281 174.808594 145.542969 175.234375 C 146.164063 175.523438 147.308594 175.675781 147.429688 175.535156 C 147.546875 175.421875 147.679688 175.269531 147.707031 174.722656 "/>
<path style=" stroke:none;fill-rule:nonzero;fill:rgb(0%,57.598877%,68.598938%);fill-opacity:1;" d="M 151.578125 198.984375 C 152.339844 198.984375 153.066406 199.171875 153.789063 199.558594 C 154.492188 199.941406 155.050781 200.488281 155.441406 201.195313 C 155.832031 201.910156 156.042969 202.660156 156.039063 203.425781 C 156.042969 204.203125 155.839844 204.925781 155.464844 205.628906 C 155.070313 206.347656 154.515625 206.890625 153.804688 207.289063 C 153.109375 207.675781 152.371094 207.875 151.589844 207.875 C 150.828125 207.871094 150.089844 207.675781 149.378906 207.285156 C 148.671875 206.898438 148.121094 206.347656 147.734375 205.640625 C 147.324219 204.933594 147.144531 204.203125 147.136719 203.429688 C 147.128906 202.660156 147.328125 201.917969 147.734375 201.195313 C 148.140625 200.488281 148.691406 199.941406 149.398438 199.558594 C 150.109375 199.171875 150.84375 198.984375 151.578125 198.984375 M 151.578125 199.726563 C 150.960938 199.726563 150.359375 199.882813 149.769531 200.207031 C 149.167969 200.523438 148.707031 200.984375 148.375 201.574219 C 148.054688 202.171875 147.878906 202.792969 147.878906 203.429688 C 147.878906 204.070313 148.046875 204.683594 148.367188 205.265625 C 148.707031 205.847656 149.15625 206.3125 149.746094 206.636719 C 150.328125 206.960938 150.945313 207.125 151.582031 207.121094 C 152.226563 207.121094 152.839844 206.964844 153.433594 206.636719 C 154.03125 206.304688 154.492188 205.847656 154.820313 205.261719 C 155.140625 204.675781 155.296875 204.066406 155.296875 203.425781 C 155.289063 202.789063 155.132813 202.167969 154.796875 201.570313 C 154.472656 200.980469 154.003906 200.515625 153.410156 200.207031 C 152.804688 199.882813 152.207031 199.726563 151.578125 199.726563 "/>
<path style=" stroke:none;fill-rule:nonzero;fill:rgb(0%,57.598877%,68.598938%);fill-opacity:1;" d="M 149.632813 205.886719 L 149.628906 201.113281 L 151.277344 201.117188 C 151.847656 201.117188 152.253906 201.15625 152.503906 201.246094 C 152.746094 201.335938 152.953125 201.484375 153.109375 201.714844 C 153.253906 201.925781 153.328125 202.15625 153.328125 202.40625 C 153.328125 202.753906 153.210938 203.0625 152.953125 203.324219 C 152.703125 203.582031 152.375 203.722656 151.960938 203.753906 C 152.132813 203.832031 152.261719 203.914063 152.371094 204.011719 C 152.558594 204.203125 152.792969 204.507813 153.074219 204.949219 L 153.664063 205.886719 L 152.707031 205.886719 L 152.285156 205.136719 C 151.953125 204.542969 151.679688 204.179688 151.476563 204.023438 C 151.339844 203.914063 151.125 203.863281 150.855469 203.863281 L 150.398438 203.863281 L 150.398438 205.882813 Z M 150.398438 203.199219 L 151.355469 203.199219 C 151.804688 203.199219 152.109375 203.128906 152.273438 202.996094 C 152.449219 202.863281 152.519531 202.683594 152.519531 202.460938 C 152.519531 202.324219 152.492188 202.195313 152.414063 202.085938 C 152.332031 201.976563 152.214844 201.894531 152.074219 201.832031 C 151.9375 201.789063 151.664063 201.757813 151.292969 201.753906 L 150.398438 201.753906 "/>
<path style=" stroke:none;fill-rule:nonzero;fill:rgb(0%,57.598877%,68.598938%);fill-opacity:1;" d="M 75.15625 168.8125 C 73.96875 170.371094 73.027344 171.539063 73.566406 171.886719 C 74.175781 172.171875 74.71875 171.625 75.4375 171.097656 C 76.15625 170.554688 77.40625 169.148438 78.816406 167.90625 C 80.195313 166.632813 82.835938 164.019531 81.5 162.835938 C 79.953125 161.480469 79.511719 162.347656 78.042969 164.789063 C 77.683594 165.347656 76.335938 167.265625 75.15625 168.8125 "/>
</g>
</svg>
